<?xml version="1.0" standalone="no"?><!DOCTYPE svg PUBLIC "-//W3C//DTD SVG 1.1//EN" "http://www.w3.org/Graphics/SVG/1.1/DTD/svg11.dtd"><svg t="1705074907708" class="icon" viewBox="0 0 1024 1024" version="1.1" xmlns="http://www.w3.org/2000/svg" p-id="5376" xmlns:xlink="http://www.w3.org/1999/xlink" width="128" height="128"><path d="M512.464 1000.134c-269.967 0-489.595-219.642-489.595-489.595s219.628-489.595 489.595-489.595 489.595 219.628 489.595 489.595-219.642 489.595-489.595 489.595zM512.464 61.904c-247.385 0-448.635 201.25-448.635 448.635s201.264 448.635 448.635 448.635 448.635-201.25 448.635-448.635-201.264-448.635-448.635-448.635z" fill="#52ba99" p-id="5377"></path><path d="M668.235 796.439h-311.555c-33.874 0-61.44-27.566-61.44-61.44v-469.374c0-33.874 27.566-61.44 61.44-61.44h311.541c33.874 0 61.44 27.566 61.44 61.44v469.374c0.014 33.888-27.552 61.44-61.426 61.44zM356.679 245.146c-11.292 0-20.48 9.188-20.48 20.48v469.374c0 11.292 9.188 20.48 20.48 20.48h311.541c11.292 0 20.48-9.188 20.48-20.48v-469.374c0-11.292-9.188-20.48-20.48-20.48h-311.541z" fill="#52ba99" p-id="5378"></path><path d="M313.986 606.999h393.461v40.96h-393.461v-40.96z" fill="#52ba99" p-id="5379"></path><path d="M491.52 702.014c0 11.311 9.169 20.48 20.48 20.48s20.48-9.169 20.48-20.48c0-11.311-9.169-20.48-20.48-20.48-11.311 0-20.48 9.169-20.48 20.48z" fill="#52ba99" p-id="5380"></path></svg>