<?xml version="1.0" standalone="no"?><!DOCTYPE svg PUBLIC "-//W3C//DTD SVG 1.1//EN" "http://www.w3.org/Graphics/SVG/1.1/DTD/svg11.dtd"><svg t="1705074802554" class="icon" viewBox="0 0 1024 1024" version="1.1" xmlns="http://www.w3.org/2000/svg" p-id="4073" data-spm-anchor-id="a313x.search_index.0.i8.3e7c3a81UKj5n7" xmlns:xlink="http://www.w3.org/1999/xlink" width="128" height="128"><path d="M512 981.333333C251.733333 981.333333 42.666667 772.266667 42.666667 512S251.733333 42.666667 512 42.666667s469.333333 209.066667 469.333333 469.333333-209.066667 469.333333-469.333333 469.333333z m0-874.666666C288 106.666667 106.666667 288 106.666667 512s181.333333 405.333333 405.333333 405.333333 405.333333-181.333333 405.333333-405.333333S736 106.666667 512 106.666667z" fill="#52ba99" p-id="4074"></path><path d="M768 800c-17.066667 0-32-14.933333-32-32 0-123.733333-100.266667-224-224-224S290.133333 644.266667 290.133333 768c0 17.066667-14.933333 32-32 32s-32-14.933333-32-32c0-157.866667 128-288 288-288s288 128 288 288c-2.133333 17.066667-17.066667 32-34.133333 32z" fill="#52ba99" p-id="4075"></path><path d="M512 544c-87.466667 0-160-70.4-160-160 0-87.466667 70.4-160 160-160 87.466667 0 160 70.4 160 160 0 87.466667-72.533333 160-160 160z m0-256c-53.333333 0-96 42.666667-96 96s42.666667 96 96 96 96-42.666667 96-96-42.666667-96-96-96z" fill="#52ba99" p-id="4076"></path></svg>