<?xml version="1.0" standalone="no"?><!DOCTYPE svg PUBLIC "-//W3C//DTD SVG 1.1//EN" "http://www.w3.org/Graphics/SVG/1.1/DTD/svg11.dtd"><svg t="1705073768244" class="icon" viewBox="0 0 1024 1024" version="1.1" xmlns="http://www.w3.org/2000/svg" p-id="3014" width="128" height="128" xmlns:xlink="http://www.w3.org/1999/xlink"><path d="M910.848 928.768H110.592s-63.488 9.728-63.488-73.216V185.344s1.536-74.752 79.36-74.752h280.064s34.304-6.656 62.464 35.84c26.624 41.472 42.496 67.584 42.496 67.584s9.728 11.264 32.768 11.264h360.96s63.488-6.656 63.488 62.464v571.904c-0.512 0 9.728 69.12-57.856 69.12zM850.944 383.488c0-16.384-14.336-30.208-30.72-30.208H197.12c-18.432 0-32.768 13.824-32.768 30.208v2.56c0 17.92 14.336 31.744 32.768 31.744h622.592c16.896 0 30.72-13.824 30.72-31.744l0.512-2.56z" fill="#52BA99" p-id="3015"></path><path d="M866.304 640h39.424c18.432 0 32.768 14.336 32.768 31.744v31.744c0 17.92-14.848 31.744-32.768 31.744h-39.424c-3.584 13.312-9.216 26.112-16.384 37.888l27.648 27.136a31.232 31.232 0 0 1 0 45.056l-23.04 22.528c-12.8 12.288-33.792 12.288-46.08 0l-27.648-27.136c-12.288 6.656-25.088 11.776-38.912 15.872v38.4c0 17.92-14.848 31.744-32.768 31.744h-32.768c-18.432 0-32.768-14.336-32.768-31.744v-38.4c-13.824-3.584-26.624-9.216-38.912-15.872l-27.648 27.136c-12.8 12.288-33.792 12.288-46.08 0l-23.04-22.528a31.232 31.232 0 0 1 0-45.056l27.648-27.136c-6.656-11.776-12.288-24.576-16.384-37.888h-39.424c-18.432 0-32.768-14.336-32.768-31.744v-31.744c0-17.92 14.848-31.744 32.768-31.744h39.424c3.584-13.312 9.216-26.112 16.384-37.888l-27.648-27.136a31.232 31.232 0 0 1 0-45.056l23.04-22.528c12.8-12.288 33.792-12.288 46.08 0l27.648 27.136c12.288-6.656 25.088-11.776 38.912-15.872v-38.4c0-17.92 14.848-31.744 32.768-31.744h32.768c18.432 0 32.768 14.336 32.768 31.744v38.4c13.824 3.584 26.624 9.216 38.912 15.872l27.648-27.136c12.8-12.288 33.792-12.288 46.08 0l23.04 22.528a31.232 31.232 0 0 1 0 45.056l-27.648 27.136c6.656 11.776 12.288 24.576 16.384 37.888z m-32.256 8.704c-3.072-10.752-7.168-20.992-13.312-30.72l-12.288-20.992 45.568-44.544-23.04-22.528-45.568 44.544-21.504-11.776c-9.728-5.632-20.48-9.728-31.232-12.8l-23.552-6.656V480.256h-32.768V542.72l-24.064 6.656c-11.264 3.072-21.504 7.168-31.232 12.8l-21.504 11.776-45.568-44.544-23.04 22.528 45.568 44.544-12.288 20.992c-5.632 9.728-9.728 19.968-13.312 30.72l-6.656 23.552H479.744v31.744h64l6.656 23.552c3.072 10.752 7.168 20.992 13.312 30.72l12.288 20.992-45.568 44.544 23.04 22.528 45.568-44.544 21.504 11.776c9.728 5.632 20.48 9.728 31.232 12.8l24.064 6.656V896h32.768v-62.976l24.064-6.656c11.264-3.072 21.504-7.168 31.232-12.8l21.504-11.776 45.568 44.544 23.04-22.528-45.568-44.544 12.288-20.992c5.632-9.728 9.728-19.968 13.312-30.72l6.656-23.552h65.024v-31.744h-64.512l-7.168-23.552zM692.736 768c-45.056 0-81.92-35.84-81.92-79.872s36.864-79.872 81.92-79.872 81.92 35.84 81.92 79.872-36.864 79.872-81.92 79.872z m0-31.744c27.136 0 49.152-21.504 49.152-48.128s-22.016-48.128-49.152-48.128-49.152 21.504-49.152 48.128c-0.512 26.624 21.504 48.128 49.152 48.128z" fill="#FFFFFF" p-id="3016"></path></svg>